<?xml version="1.0" standalone="no"?>
<!DOCTYPE svg PUBLIC "-//W3C//DTD SVG 20010904//EN"
 "http://www.w3.org/TR/2001/REC-SVG-20010904/DTD/svg10.dtd">
<svg version="1.0" xmlns="http://www.w3.org/2000/svg"
 width="512.000000pt" height="512.000000pt" viewBox="0 0 512.000000 512.000000"
 preserveAspectRatio="xMidYMid meet">
<metadata>
Created by potrace 1.14, written by Peter Selinger 2001-2017
</metadata>
<g transform="translate(0.000000,512.000000) scale(0.100000,-0.100000)"
fill="#000000" stroke="none">
<path d="M2300 4776 c-131 -35 -238 -124 -301 -249 -38 -77 -39 -83 -22 -95
10 -7 56 -39 103 -72 159 -111 323 -298 406 -461 74 -147 128 -340 140 -503 6
-76 13 -91 25 -51 5 15 53 62 60 58 4 -1 6 5 5 15 0 9 5 16 12 15 6 -2 12 2
12 7 0 6 11 20 25 32 13 11 22 25 19 29 -2 4 4 13 14 18 11 6 27 22 37 37 9
14 12 23 6 20 -6 -4 -11 -5 -11 -2 0 3 13 12 29 21 16 8 40 33 52 54 12 22 26
38 31 35 4 -3 8 -1 8 4 0 5 12 22 26 38 51 58 55 77 55 222 -1 210 -15 271
-109 458 -44 88 -99 183 -123 212 -55 68 -142 126 -226 152 -75 23 -201 26
-273 6z"/>
<path d="M1857 4238 c-50 -103 -248 -513 -1199 -2473 -182 -374 -339 -707
-349 -740 -37 -118 -17 -282 46 -391 43 -73 134 -156 217 -197 81 -40 201 -67
410 -94 166 -21 788 -24 968 -5 262 28 569 91 754 154 l68 24 -113 67 c-283
167 -503 376 -680 645 -82 124 -177 316 -214 432 l-27 85 376 774 c248 511
376 784 376 805 0 153 -114 510 -209 656 -59 91 -241 282 -323 338 l-48 33
-53 -113z"/>
<path d="M3025 4180 c27 -127 25 -347 -4 -498 -44 -227 -175 -466 -354 -644
l-97 -97 199 -398 c110 -219 205 -405 213 -414 12 -15 15 -15 31 2 9 11 15 19
11 19 -6 0 48 74 59 78 4 2 7 8 7 14 0 5 6 15 13 22 22 22 48 61 47 69 -1 4
13 21 30 37 16 15 30 31 30 35 0 4 15 26 33 48 17 23 25 37 17 33 -8 -5 -5 1
7 13 12 11 26 21 32 21 5 0 7 10 4 22 -4 19 -3 20 6 8 9 -13 11 -13 11 3 0 9
8 26 18 36 31 34 43 51 37 51 -5 0 17 29 43 55 6 8 12 18 12 23 0 5 11 21 25
36 14 15 22 32 19 38 -4 7 -2 8 4 4 7 -4 12 -1 12 8 0 9 4 16 9 16 5 0 19 17
32 38 12 20 28 42 36 49 9 7 16 38 19 85 l4 73 -285 570 c-157 314 -283 559
-280 545z"/>
<path d="M3666 2853 c-3 -27 -12 -91 -20 -143 -66 -425 -372 -801 -787 -966
-226 -89 -541 -109 -769 -49 -27 7 -50 9 -50 4 0 -19 91 -215 141 -303 203
-359 497 -637 878 -830 168 -84 241 -112 399 -152 423 -107 873 -81 1264 72
51 20 97 40 102 44 5 5 -244 525 -554 1162 -310 634 -568 1165 -574 1181 -15
39 -24 33 -30 -20z"/>
</g>
</svg>
