<?xml version="1.0" encoding="UTF-8" standalone="no"?>
<!DOCTYPE svg PUBLIC "-//W3C//DTD SVG 1.1//EN" "http://www.w3.org/Graphics/SVG/1.1/DTD/svg11.dtd">
<svg width="100%" height="100%" viewBox="0 0 100 100" version="1.1" xmlns="http://www.w3.org/2000/svg" xmlns:xlink="http://www.w3.org/1999/xlink" xml:space="preserve" xmlns:serif="http://www.serif.com/" style="fill-rule:evenodd;clip-rule:evenodd;stroke-linecap:round;stroke-linejoin:round;stroke-miterlimit:10;">
    <g transform="matrix(1.2183,0,0,1.2183,-12.0007,-14.3156)">
        <path d="M42.586,66.518C44.362,67.036 46.238,67.322 48.18,67.334C59.356,67.414 68.496,58.486 68.718,47.346C68.862,48.598 68.936,49.87 68.936,51.16C68.936,63.602 62.05,74.436 51.882,80.058C47.736,76.432 44.508,71.788 42.586,66.518Z" style="fill:url(#_Linear1);fill-rule:nonzero;stroke:rgb(23,88,78);stroke-width:0.16px;"/>
        <path d="M59.322,28.368L62.274,34.308L62.548,34.86C62.552,34.866 62.554,34.874 62.558,34.88L67.53,44.886C67.476,51.892 63.888,58.06 58.462,61.692L50.982,46.638C51.04,46.452 51.058,46.386 51.012,46.54C55.662,42.8 58.64,37.064 58.64,30.632C58.64,28.994 58.446,27.4 58.082,25.874L59.322,28.368Z" style="fill:url(#_Linear2);fill-rule:nonzero;stroke:rgb(60,170,138);stroke-width:0.16px;stroke-linecap:butt;"/>
        <path d="M49.73,40.938L49.73,40.964C49.73,40.964 38.282,68.172 37.602,65.99L37.618,65.956C36.662,62.866 36.146,59.582 36.146,56.178C36.146,46.354 40.438,37.532 47.25,31.488C46.89,30.828 49.666,36.71 49.73,40.938Z" style="fill:url(#_Linear3);fill-rule:nonzero;stroke:rgb(24,91,81);stroke-width:0.16px;"/>
        <path d="M40.524,24.19C43.32,26.028 45.64,28.534 47.25,31.488C40.438,37.532 36.146,46.354 36.146,56.178C36.146,59.582 36.662,62.866 37.618,65.956L37.602,65.99C39.63,72.494 43.618,78.132 48.872,82.218C50.49,83.48 52.228,84.594 54.068,85.54C54.04,85.55 54.01,85.562 53.982,85.572C53.864,85.554 54.184,85.56 54.068,85.54C40.988,78.66 30.82,66.54 26.932,52.232L40.524,24.19Z" style="fill:url(#_Linear4);fill-rule:nonzero;stroke:rgb(22,77,69);stroke-width:0.16px;"/>
        <path d="M21.988,87.7C17.722,87.102 14.52,83.922 14.52,79.614C14.52,78.534 14.738,77.506 15.134,76.572L15.476,75.866C15.662,75.528 15.946,74.898 15.946,74.898L20.424,65.658C28.528,76.056 40.51,83.344 54.094,85.54C41.478,90.196 25.302,88.504 21.988,87.7Z" style="fill:url(#_Linear5);fill-rule:nonzero;stroke:rgb(18,54,46);stroke-width:0.16px;"/>
        <path d="M58.64,30.632C58.64,37.064 55.662,42.8 51.012,46.54C51.572,44.676 51.874,42.7 51.874,40.652C51.874,32.922 47.574,26.198 41.238,22.736C41.786,20.628 43.21,18.76 45.316,17.712C49.174,15.796 53.856,17.368 55.772,21.226L58.082,25.874C58.446,27.4 58.64,28.994 58.64,30.632Z" style="fill:url(#_Linear6);fill-rule:nonzero;stroke:rgb(64,183,146);stroke-width:0.16px;"/>
        <path d="M20.424,65.658L26.932,52.232C30.82,66.54 40.988,78.66 54.068,85.54C40.63,83.276 28.458,75.966 20.424,65.658Z" style="fill:url(#_Linear7);fill-rule:nonzero;stroke:rgb(16,50,40);stroke-width:0.16px;"/>
        <path d="M73.368,88.208C70.138,88.186 67.018,87.7 64.074,86.814C71.648,78.566 74.834,66.666 71.44,55.142C70.652,52.468 69.78,49.87 68.806,47.406L87.262,85.256C83.03,87.184 78.322,88.244 73.368,88.208Z" style="fill:url(#_Linear8);fill-rule:nonzero;stroke:rgb(16,49,39);stroke-width:0.16px;"/>
        <path d="M71.44,55.142C74.834,66.666 71.648,78.566 64.074,86.814C59.634,85.692 53.468,81.704 51.882,80.058C62.05,74.436 68.936,63.602 68.936,51.16C68.936,49.87 68.862,48.598 68.718,47.346C68.718,47.308 68.806,47.406 68.806,47.406C69.78,49.87 70.652,52.468 71.44,55.142Z" style="fill:url(#_Linear9);fill-rule:nonzero;stroke:rgb(19,59,51);stroke-width:0.16px;"/>
    </g>
    <defs>
        <linearGradient id="_Linear1" x1="0" y1="0" x2="1" y2="0" gradientUnits="userSpaceOnUse" gradientTransform="matrix(9.45926,16.2173,-16.2173,9.45926,47.4925,57.3958)"><stop offset="0" style="stop-color:rgb(15,32,29);stop-opacity:1"/><stop offset="1" style="stop-color:rgb(30,134,119);stop-opacity:1"/></linearGradient>
        <linearGradient id="_Linear2" x1="0" y1="0" x2="1" y2="0" gradientUnits="userSpaceOnUse" gradientTransform="matrix(-14.4413,-10.3417,10.3417,-14.4413,66.3233,55.1357)"><stop offset="0" style="stop-color:rgb(59,187,140);stop-opacity:1"/><stop offset="1" style="stop-color:rgb(29,110,94);stop-opacity:1"/></linearGradient>
        <linearGradient id="_Linear3" x1="0" y1="0" x2="1" y2="0" gradientUnits="userSpaceOnUse" gradientTransform="matrix(-42.0235,-5.7621,5.7621,-42.0235,71.2432,55.2048)"><stop offset="0" style="stop-color:rgb(15,32,29);stop-opacity:1"/><stop offset="1" style="stop-color:rgb(30,134,119);stop-opacity:1"/></linearGradient>
        <linearGradient id="_Linear4" x1="0" y1="0" x2="1" y2="0" gradientUnits="userSpaceOnUse" gradientTransform="matrix(-31.2371,-4.62931,4.62931,-31.2371,53.982,56.8613)"><stop offset="0" style="stop-color:rgb(15,32,29);stop-opacity:1"/><stop offset="1" style="stop-color:rgb(30,134,119);stop-opacity:1"/></linearGradient>
        <linearGradient id="_Linear5" x1="0" y1="0" x2="1" y2="0" gradientUnits="userSpaceOnUse" gradientTransform="matrix(-12.7824,29.6814,-29.6814,-12.7824,41.238,63.8043)"><stop offset="0" style="stop-color:rgb(13,36,23);stop-opacity:1"/><stop offset="1" style="stop-color:rgb(26,87,87);stop-opacity:1"/></linearGradient>
        <linearGradient id="_Linear6" x1="0" y1="0" x2="1" y2="0" gradientUnits="userSpaceOnUse" gradientTransform="matrix(-15.1924,-12.8717,12.8717,-15.1924,57.7783,40.8337)"><stop offset="0" style="stop-color:rgb(59,187,140);stop-opacity:1"/><stop offset="1" style="stop-color:rgb(29,110,94);stop-opacity:1"/></linearGradient>
        <linearGradient id="_Linear7" x1="0" y1="0" x2="1" y2="0" gradientUnits="userSpaceOnUse" gradientTransform="matrix(-11.4894,12.3983,-12.3983,-11.4894,43.7116,64.4898)"><stop offset="0" style="stop-color:rgb(13,36,23);stop-opacity:1"/><stop offset="1" style="stop-color:rgb(26,87,87);stop-opacity:1"/></linearGradient>
        <linearGradient id="_Linear8" x1="0" y1="0" x2="1" y2="0" gradientUnits="userSpaceOnUse" gradientTransform="matrix(19.9546,17.0216,-17.0216,19.9546,58.64,71.6648)"><stop offset="0" style="stop-color:rgb(13,36,23);stop-opacity:1"/><stop offset="1" style="stop-color:rgb(26,87,87);stop-opacity:1"/></linearGradient>
        <linearGradient id="_Linear9" x1="0" y1="0" x2="1" y2="0" gradientUnits="userSpaceOnUse" gradientTransform="matrix(10.6705,7.78593,-7.78593,10.6705,52.0245,75.3047)"><stop offset="0" style="stop-color:rgb(13,36,23);stop-opacity:1"/><stop offset="1" style="stop-color:rgb(26,87,87);stop-opacity:1"/></linearGradient>
    </defs>
</svg>
